<?xml version="1.0" encoding="UTF-8" standalone="no"?>
<!DOCTYPE svg PUBLIC "-//W3C//DTD SVG 1.1//EN" "http://www.w3.org/Graphics/SVG/1.1/DTD/svg11.dtd">
<!-- Created with Vectornator (http://vectornator.io/) -->
<svg height="100%" stroke-miterlimit="10" style="fill-rule:nonzero;clip-rule:evenodd;stroke-linecap:round;stroke-linejoin:round;" version="1.1" viewBox="0 0 272 272" width="100%" xml:space="preserve" xmlns="http://www.w3.org/2000/svg" xmlns:vectornator="http://vectornator.io" xmlns:xlink="http://www.w3.org/1999/xlink">
<defs/>
<g id="Untitled" vectornator:layerName="Untitled">
<path d="M136.28 4.09L217.95 4L80.93 140.95L45.22 176.46L4.59 135.78L136.28 4.09ZM135.52 126.37C136.58 124.97 138.53 125.66 140.01 125.48L217.88 125.5L146.91 196.4L106.07 155.81L135.52 126.37Z" fill="#44d1fd" fill-rule="nonzero" opacity="1" stroke="none" vectornator:layerName="path"/>
<path d="M65.36 196.47L106.07 155.81L146.91 196.4L147.08 196.58L106.08 237.2C106.08 237.2 65.36 196.47 65.36 196.47Z" fill="#1fbcfd" fill-rule="nonzero" opacity="1" stroke="none" vectornator:layerName="path"/>
<path d="M106.08 237.2L147.08 196.58L217.91 267.48C191.23 267.54 164.56 267.46 137.89 267.52C136.37 267.86 135.43 266.47 134.46 265.61C134.46 265.61 106.08 237.2 106.08 237.2Z" fill="#08589c" fill-rule="nonzero" opacity="1" stroke="none" vectornator:layerName="path"/>
</g>
</svg>
