<?xml version="1.0" encoding="UTF-8" standalone="no"?>
<!DOCTYPE svg PUBLIC "-//W3C//DTD SVG 1.1//EN" "http://www.w3.org/Graphics/SVG/1.1/DTD/svg11.dtd">
<!-- Created with Vectornator (http://vectornator.io/) -->
<svg height="100%" stroke-miterlimit="10" style="fill-rule:nonzero;clip-rule:evenodd;stroke-linecap:round;stroke-linejoin:round;" version="1.1" viewBox="0 0 25 25" width="100%" xml:space="preserve" xmlns="http://www.w3.org/2000/svg" xmlns:vectornator="http://vectornator.io" xmlns:xlink="http://www.w3.org/1999/xlink">
<defs/>
<g id="Untitled" vectornator:layerName="Untitled">
<path d="M9.804 12.041L14.766 12.041C16.148 12.041 17.251 10.904 17.251 9.516L17.251 4.786C17.251 3.439 16.115 2.427 14.766 2.203C13.9106 2.06279 13.0448 1.99488 12.178 2C11.329 2.005 10.518 2.076 9.804 2.203C7.701 2.573 7.319 3.352 7.319 4.785L7.319 6.68L12.287 6.68L12.287 7.311L5.454 7.311C4.01 7.311 2.746 8.179 2.35 9.831C1.894 11.723 1.873 12.904 2.35 14.881C2.703 16.351 3.546 17.4 4.99 17.4L6.7 17.4L6.7 15.13C6.7 13.49 8.119 12.043 9.804 12.043L9.804 12.041ZM9.49 5.417C8.97195 5.4137 8.55468 4.99105 8.558 4.473C8.558 3.949 8.974 3.523 9.49 3.523C10.003 3.523 10.423 3.949 10.423 4.473C10.4246 4.72195 10.3272 4.96132 10.1522 5.13838C9.97716 5.31545 9.73895 5.41568 9.49 5.417Z" fill="#426c99" fill-rule="nonzero" opacity="1" stroke="none" vectornator:layerName="path"/>
<path d="M22.218 9.829C21.862 8.391 21.18 7.309 19.734 7.309L17.869 7.309L17.869 9.515C17.869 11.225 16.419 12.666 14.765 12.666L9.804 12.666C8.444 12.666 7.319 13.83 7.319 15.191L7.319 19.922C7.319 21.269 8.489 22.06 9.804 22.447C11.377 22.91 12.884 22.993 14.766 22.447C16.017 22.085 17.251 21.356 17.251 19.922L17.251 18.028L12.288 18.028L12.288 17.398L19.736 17.398C21.18 17.398 21.717 16.39 22.22 14.878C22.739 13.321 22.717 11.825 22.22 9.828L22.218 9.829ZM15.078 19.292C15.594 19.292 16.011 19.714 16.011 20.235C16.011 20.759 15.594 21.185 15.079 21.185C14.5594 21.1795 14.1421 20.7546 14.146 20.235C14.146 19.713 14.565 19.292 15.079 19.292L15.078 19.292Z" fill="#f7da5f" fill-rule="nonzero" opacity="1" stroke="none" vectornator:layerName="path 1"/>
</g>
</svg>
